<svg width="1600" height="900" viewBox="0 0 1600 900" fill="none" xmlns="http://www.w3.org/2000/svg">
  <rect width="1600" height="900" fill="#020617"/>
  <rect width="1600" height="900" fill="url(#paint0_radial)"/>
  <rect width="1600" height="900" fill="url(#paint1_radial)"/>
  <rect width="1600" height="900" fill="url(#paint2_linear)"/>
  <g opacity="0.18">
    <path d="M1180 110C1180 26.0537 1248.05 -42 1332 -42H1680V248H1332C1248.05 248 1180 179.946 1180 96V110Z" fill="#1D4ED8"/>
    <path d="M-120 610C-120 498.366 -29.6346 408 82 408H408V782H82C-29.6347 782 -120 691.635 -120 580V610Z" fill="#0F766E"/>
  </g>
  <g opacity="0.08" stroke="#BFDBFE">
    <path d="M0 188H1600"/>
    <path d="M0 450H1600"/>
    <path d="M0 712H1600"/>
    <path d="M320 0V900"/>
    <path d="M800 0V900"/>
    <path d="M1280 0V900"/>
  </g>
  <defs>
    <radialGradient id="paint0_radial" cx="0" cy="0" r="1" gradientUnits="userSpaceOnUse" gradientTransform="translate(280 162) rotate(34.281) scale(498.176 402.83)">
      <stop stop-color="#1D4ED8" stop-opacity="0.28"/>
      <stop offset="1" stop-color="#1D4ED8" stop-opacity="0"/>
    </radialGradient>
    <radialGradient id="paint1_radial" cx="0" cy="0" r="1" gradientUnits="userSpaceOnUse" gradientTransform="translate(1204 728) rotate(-143.418) scale(558.712 452.102)">
      <stop stop-color="#0891B2" stop-opacity="0.22"/>
      <stop offset="1" stop-color="#0891B2" stop-opacity="0"/>
    </radialGradient>
    <linearGradient id="paint2_linear" x1="800" y1="0" x2="800" y2="900" gradientUnits="userSpaceOnUse">
      <stop stop-color="#0F172A" stop-opacity="0.35"/>
      <stop offset="1" stop-color="#020617" stop-opacity="0.88"/>
    </linearGradient>
  </defs>
</svg>
